<svg xmlns:xlink="http://www.w3.org/1999/xlink" xmlns="http://www.w3.org/2000/svg" viewBox="0 0 1098.5 222.32" width="1110"  height="225" ><defs><linearGradient id="banner-bottom_svg__a" x1="-2.281" x2="3.281" y1="0.5" y2="0.5"><stop offset="0" stop-color="#072997" stop-opacity="0"></stop><stop offset="1" stop-color="#0094d4" stop-opacity="0.2"></stop></linearGradient><linearGradient id="banner-bottom_svg__b" y1="0.5" y2="0.5" xlink:href="#banner-bottom_svg__a"></linearGradient><clipPath id="banner-bottom_svg__c"><path fill="none" d="M0 0h51.493v38.464H0z" data-name="Rectangle 172"></path></clipPath><style>.banner-bottom_svg__prefix-banner-2-10,.banner-bottom_svg__prefix-banner-2-12,.banner-bottom_svg__prefix-banner-2-13,.banner-bottom_svg__prefix-banner-2-17,.banner-bottom_svg__prefix-banner-2-21,.banner-bottom_svg__prefix-banner-2-26,.banner-bottom_svg__prefix-banner-2-3,.banner-bottom_svg__prefix-banner-2-7{fill:none}.banner-bottom_svg__prefix-banner-2-2{fill:#343434;font-size:16px;font-family:HelveticaNeue-Bold,Helvetica Neue;font-weight:700}.banner-bottom_svg__prefix-banner-2-10,.banner-bottom_svg__prefix-banner-2-3{stroke:#202cb9}.banner-bottom_svg__prefix-banner-2-10,.banner-bottom_svg__prefix-banner-2-12,.banner-bottom_svg__prefix-banner-2-21,.banner-bottom_svg__prefix-banner-2-26,.banner-bottom_svg__prefix-banner-2-3,.banner-bottom_svg__prefix-banner-2-6,.banner-bottom_svg__prefix-banner-2-7{stroke-miterlimit:10}.banner-bottom_svg__prefix-banner-2-3{stroke-width:.5px}.banner-bottom_svg__prefix-banner-2-4{fill:#eff0f4}.banner-bottom_svg__prefix-banner-2-5{fill:#f53700}.banner-bottom_svg__prefix-banner-2-25,.banner-bottom_svg__prefix-banner-2-6{fill:#fff}.banner-bottom_svg__prefix-banner-2-17,.banner-bottom_svg__prefix-banner-2-21,.banner-bottom_svg__prefix-banner-2-6,.banner-bottom_svg__prefix-banner-2-7{stroke:#f53700}.banner-bottom_svg__prefix-banner-2-17,.banner-bottom_svg__prefix-banner-2-21,.banner-bottom_svg__prefix-banner-2-6{stroke-width:2px}.banner-bottom_svg__prefix-banner-2-7{stroke-width:.75px}.banner-bottom_svg__prefix-banner-2-13{fill-rule:evenodd}.banner-bottom_svg__prefix-banner-2-9{fill:#202cb9}.banner-bottom_svg__prefix-banner-2-10,.banner-bottom_svg__prefix-banner-2-12,.banner-bottom_svg__prefix-banner-2-26{stroke-width:.25px}.banner-bottom_svg__prefix-banner-2-12{stroke:#fde8e8}.banner-bottom_svg__prefix-banner-2-13,.banner-bottom_svg__prefix-banner-2-26{stroke:#fff}.banner-bottom_svg__prefix-banner-2-13,.banner-bottom_svg__prefix-banner-2-17{stroke-linecap:round;stroke-linejoin:round}.banner-bottom_svg__prefix-banner-2-15{fill:#fff0ee}.banner-bottom_svg__prefix-banner-2-32{fill:#171770}</style><linearGradient id="banner-bottom_svg__a" x1="-2.281" x2="3.281" y1="0.5" y2="0.5"><stop offset="0" stop-color="#072997" stop-opacity="0"></stop><stop offset="1" stop-color="#0094d4" stop-opacity="0.2"></stop></linearGradient><linearGradient id="banner-bottom_svg__b" y1="0.5" y2="0.5" xlink:href="#banner-bottom_svg__a"></linearGradient></defs><g data-name="Group 510"><text class="banner-bottom_svg__prefix-banner-2-2" data-name="\u0110\u1EB7t h\xE0ng" transform="translate(105.08 218.3)" fill="#343434"><tspan x="0" y="0" fill="#343434">Đặt hàng</tspan></text><text class="banner-bottom_svg__prefix-banner-2-2" data-name="X\xE1c minh" transform="translate(375.08 218.3)" fill="#343434"><tspan x="0" y="0" fill="#343434">Xác minh</tspan></text><text class="banner-bottom_svg__prefix-banner-2-2" data-name="V\u1EADn chuy\u1EC3n h\xE0ng" transform="translate(616.08 218.3)" fill="#343434"><tspan x="0" y="0" fill="#343434">Vận chuyển hàng</tspan></text><text class="banner-bottom_svg__prefix-banner-2-2" data-name="X\xE1c nh\u1EADn v\xE0 thanh to\xE1n" transform="translate(872.08 218.3)" fill="#343434"><tspan x="0" y="0" fill="#343434">Xác nhận và thanh toán</tspan></text><g data-name="Group 474" transform="translate(-13.7 -210.8)"><path d="M13.777 304.216c19.542 6.154 40.98 4.625 60.459-1.726s37.181-17.3 53.428-29.785c7.824-6.012 15.463-12.464 24.414-16.614 15.376-7.128 33.576-6.73 49.587-1.174s30.006 15.918 41.951 27.944c5.937 5.977 11.478 12.434 18.263 17.429 22.207 16.347 52.646 13.974 79.9 9.757" class="banner-bottom_svg__prefix-banner-2-3" data-name="Path 271" stroke="#202CB9" fill="none" stroke-width="0.5px"></path><g data-name="0Pkjsb"><g data-name="Group 469"><path d="M159.223 339.081c4.162-.281 8.328.019 12.484-.167 7.244-.324 14.492-.2 21.733-.1 4.475.063 8.956-.069 13.424.154 2.223.111 4.444.02 6.66.141 3.41.187 6.823.25 10.234.36 2.812.09 5.627.183 8.435.346 4.778.277 9.584.468 14.245 1.7 2.846.755 5.627 1.771 7.744 3.938 1.554 1.591 2.443 3.5 1.394 5.735a8.121 8.121 0 01-3.426 3.361 31.35 31.35 0 01-9.534 3.353c-4.812 1.074-9.657 1.982-14.522 2.8-3.577.6-7.174 1.037-10.768 1.486a88.3 88.3 0 00-9.234 1.405c-.478.111-1.212.114-1.291.574-.059.341.678.573 1.091.818a48.982 48.982 0 015.495 3.267c1.327 1.045 2.493 2.252 2.343 4.124a5.415 5.415 0 01-2.379 3.885 27.345 27.345 0 01-8.859 4.112 82.674 82.674 0 01-10.281 2.339c-3.236.56-6.477 1.1-9.746 1.448-2.872.306-5.734.7-8.606 1-1.806.183-3.628.2-5.436.371a218.282 218.282 0 01-22.974.463c-3.338-.034-6.687-.281-10.024-.6-2-.194-4.012-.331-6.01-.568a89.544 89.544 0 01-9.3-1.581 40.329 40.329 0 01-7.248-2.2 8.972 8.972 0 01-4.457-3.563 2.9 2.9 0 01.5-3.535 13.387 13.387 0 013.564-2.617c3.994-2.189 8.136-4.111 11.923-6.668a5.685 5.685 0 001.659-1.441 1 1 0 00-.326-1.532 8.254 8.254 0 00-2.176-1.169 33.351 33.351 0 00-7.479-1.556c-4.241-.493-8.5-.611-12.76-.725-2.048-.054-4.1-.03-6.146-.126-3.32-.157-6.643-.277-9.954-.531-3.446-.264-6.883-.647-10.318-1.018-4-.431-7.992-.9-11.986-1.367a79.724 79.724 0 01-8.5-1.088 16.915 16.915 0 01-6.7-2.84c-2.529-1.943-1.951-5.258 1.174-6.5a51.318 51.318 0 0110.051-2.56c7.255-1.307 14.016-2.763 21.4-3.2q12.147-.715 24.316-.92 12.926-.216 25.852.141c8.197.224 16.572 1.258 24.719.851z" class="banner-bottom_svg__prefix-banner-2-4" data-name="Path 272" fill="#EFF0F4"></path></g></g><rect width="158.81" height="100.92" class="banner-bottom_svg__prefix-banner-2-5" data-name="Rectangle 129" rx="1.435" transform="translate(72.64 247.89)" fill="#F53700"></rect><rect width="158.64" height="100.92" class="banner-bottom_svg__prefix-banner-2-6" data-name="Rectangle 130" rx="0.79" transform="translate(69.423 244.55)" stroke="#F53700" fill="#FFFFFF" stroke-width="2px"></rect><g data-name="Group 473"><g data-name="Group 472"><g data-name="Group 470"><path d="M209.82 257.888l-.872-5.813a.324.324 0 00-.32-.278l-1.564-.01v-.721l1.564.01a1.042 1.042 0 011.03.892l.1.647 9.86.061-1.014 4.585zm.047-4.552l.568 3.784 7.581-.54.7-3.187z" class="banner-bottom_svg__prefix-banner-2-5" data-name="Path 273" fill="#F53700"></path></g><g data-name="Group 471"><path d="M218.745 259.263l-8.52-.049a.625.625 0 01-.614-.725l.167-1.034.713.114-.15.924 8.409.049z" class="banner-bottom_svg__prefix-banner-2-5" data-name="Path 274" fill="#F53700"></path></g><path d="M212.402 260.683a.973.973 0 11-.967-.98.974.974 0 01.967.98z" class="banner-bottom_svg__prefix-banner-2-5" data-name="Path 275" fill="#F53700"></path><path d="M217.506 260.716a.972.972 0 11-.967-.98.973.973 0 01.967.98z" class="banner-bottom_svg__prefix-banner-2-5" data-name="Path 276" fill="#F53700"></path></g></g><path d="M122.07 321h52.157" class="banner-bottom_svg__prefix-banner-2-7" data-name="Line 24" stroke="#F53700" fill="none" stroke-width="0.75px"></path><path d="M202.58 261.888H82.635v-11.072H202.58z" class="banner-bottom_svg__prefix-banner-2-7" data-name="Path 277" stroke="#F53700" fill="none" stroke-width="0.75px"></path><path d="M91.203 258.888l-1.691-1.9a2.711 2.711 0 00.363-1.368 2.384 2.384 0 00-2.21-2.493 2.1 2.1 0 00-1.556.723 2.65 2.65 0 00-.64 1.755 2.384 2.384 0 002.21 2.493h.005a2.032 2.032 0 001.212-.414l1.689 1.9zm-1.986-3.273a1.844 1.844 0 01-.447 1.227 1.46 1.46 0 01-1.085.507h-.006a1.673 1.673 0 01-1.552-1.749 1.854 1.854 0 01.447-1.227 1.452 1.452 0 011.091-.507 1.672 1.672 0 011.551 1.749z" class="banner-bottom_svg__prefix-banner-2-5" data-name="Path 278" fill="#F53700"></path><path fill="#F53700" fill-rule="evenodd" d="M195.267 256.352l-.957.962a.294.294 0 000 .413.29.29 0 00.41 0l.957-.962.957.962a.291.291 0 00.411-.413l-.958-.962.958-.962a.291.291 0 00-.411-.411l-.957.961-.957-.961a.288.288 0 00-.41 0 .292.292 0 000 .411zm.41 3.11a3.11 3.11 0 113.093-3.11 3.1 3.1 0 01-3.093 3.113z" data-name="Path 279"></path><circle cx="1.428" cy="1.428" r="1.428" class="banner-bottom_svg__prefix-banner-2-9" data-name="Ellipse 25" transform="translate(39.798 326.1)" fill="#202CB9"></circle><circle cx="1.428" cy="1.428" r="1.428" class="banner-bottom_svg__prefix-banner-2-5" data-name="Ellipse 26" transform="translate(271.12 274.69)" fill="#F53700"></circle><circle cx="1.428" cy="1.428" r="1.428" class="banner-bottom_svg__prefix-banner-2-10" data-name="Ellipse 28" transform="translate(129.89 221)" stroke="#202CB9" fill="none" stroke-width="0.25px"></circle><path fill="none" stroke="#FFF0F0" stroke-miterlimit="10" stroke-width="0.25px" d="M85.662 344.619s39.81-59.929 66.94-45.65 38.554 45.693 72.823 21.419" data-name="Path 280"></path><rect width="43.086" height="41.768" class="banner-bottom_svg__prefix-banner-2-3" data-name="Rectangle 131" rx="5.01" transform="translate(82.652 270.05)" stroke="#202CB9" fill="none" stroke-width="0.5px"></rect><rect width="43.086" height="41.768" class="banner-bottom_svg__prefix-banner-2-3" data-name="Rectangle 132" rx="5.01" transform="translate(131.05 270.05)" stroke="#202CB9" fill="none" stroke-width="0.5px"></rect><rect width="43.086" height="41.768" class="banner-bottom_svg__prefix-banner-2-3" data-name="Rectangle 133" rx="5.01" transform="translate(179.45 270.05)" stroke="#202CB9" fill="none" stroke-width="0.5px"></rect></g><g data-name="Group 485" transform="translate(88.84 -216.4)"><path d="M304.511 291.02c38.217-.38 79.967-2.033 108.82-27.1 3.578-3.108 7.01-6.74 8.262-11.311 2.654-9.67-5.506-19.227-14.584-23.485-7.519-3.526-16.3-4.844-24.23-2.392s-14.758 9.054-16.3 17.212 2.276 16.64 8.139 22.524 13.537 9.584 21.222 12.741c30.762 12.64 69.281 21.81 133.69 27.652" class="banner-bottom_svg__prefix-banner-2-3" data-name="Path 281" stroke="#202CB9" fill="none" stroke-width="0.5px"></path><g data-name="0Pkjsb"><g data-name="Group 475"><path d="M315.411 344.821c4.242-.287 8.486.019 12.722-.17 7.382-.33 14.768-.2 22.148-.1 4.56.064 9.127-.07 13.68.157 2.266.114 4.528.02 6.787.144 3.475.191 6.953.255 10.429.367 2.865.092 5.735.186 8.6.352 4.869.282 9.767.477 14.517 1.736 2.9.77 5.735 1.8 7.891 4.013 1.583 1.621 2.49 3.564 1.42 5.844a8.276 8.276 0 01-3.491 3.425 31.948 31.948 0 01-9.716 3.417c-4.9 1.094-9.841 2.02-14.8 2.851-3.645.611-7.311 1.056-10.973 1.515a90 90 0 00-9.411 1.432c-.487.114-1.235.116-1.315.585-.06.348.691.584 1.112.834a49.918 49.918 0 015.6 3.329c1.352 1.065 2.541 2.295 2.388 4.2a5.519 5.519 0 01-2.424 3.959 27.866 27.866 0 01-9.028 4.191 84.243 84.243 0 01-10.477 2.384c-3.3.57-6.6 1.119-9.931 1.476-2.926.311-5.844.717-8.77 1.016-1.841.186-3.7.2-5.54.378a222.436 222.436 0 01-23.412.471c-3.4-.035-6.814-.287-10.215-.616-2.04-.2-4.089-.338-6.125-.579a91.262 91.262 0 01-9.473-1.611 41.1 41.1 0 01-7.386-2.238 9.143 9.143 0 01-4.542-3.631 2.958 2.958 0 01.511-3.6 13.643 13.643 0 013.632-2.667c4.07-2.231 8.292-4.189 12.151-6.8a5.794 5.794 0 001.691-1.468 1.018 1.018 0 00-.332-1.561 8.41 8.41 0 00-2.218-1.192 33.99 33.99 0 00-7.622-1.586c-4.322-.5-8.658-.623-13-.739-2.087-.055-4.178-.031-6.263-.128-3.383-.16-6.769-.282-10.144-.541-3.511-.269-7.014-.659-10.515-1.038-4.074-.439-8.145-.918-12.215-1.393a81.247 81.247 0 01-8.664-1.109 17.238 17.238 0 01-6.829-2.894c-2.577-1.98-1.988-5.358 1.2-6.628a52.3 52.3 0 0110.243-2.609c7.394-1.332 14.284-2.816 21.81-3.26q12.378-.729 24.78-.937 13.173-.22 26.346.144c8.336.236 16.87 1.29 25.173.875z" class="banner-bottom_svg__prefix-banner-2-4" data-name="Path 282" fill="#EFF0F4"></path></g></g><rect width="161.67" height="102.85" class="banner-bottom_svg__prefix-banner-2-5" data-name="Rectangle 134" rx="1.434" transform="translate(229.94 251.89)" fill="#F53700"></rect><rect width="161.67" height="102.85" class="banner-bottom_svg__prefix-banner-2-6" data-name="Rectangle 135" rx="0.79" transform="translate(226.81 248.49)" stroke="#F53700" fill="#FFFFFF" stroke-width="2px"></rect><path d="M226.81 292.303s82.585-18.189 95.681 13.824-59.661 18.917-52.386 33.469 94.613 10.288 94.613 10.288" class="banner-bottom_svg__prefix-banner-2-12" data-name="Path 283" stroke="#FDE8E8" fill="none" stroke-width="0.25px"></path><path d="M309.147 248.489s-57.675 32.171 79.328 46.722" class="banner-bottom_svg__prefix-banner-2-12" data-name="Path 284" stroke="#FDE8E8" fill="none" stroke-width="0.25px"></path><g data-name="Group 478"><g data-name="Group 476" transform="translate(247.55 271.93)"><circle cx="5.821" cy="5.821" r="5.821" class="banner-bottom_svg__prefix-banner-2-5" data-name="Ellipse 29" fill="#F53700"></circle><path d="M3.41 5.71l2.438 1.589 2.383-3.658" class="banner-bottom_svg__prefix-banner-2-13" data-name="Path 285" stroke="#FFFFFF" fill="none"></path></g><g data-name="Group 477"><path d="M263.557 271.93h97.496v2.91h-97.496z" class="banner-bottom_svg__prefix-banner-2-4" data-name="Rectangle 136" fill="#EFF0F4"></path><path d="M263.557 276.295h66.937v2.91h-66.937z" class="banner-bottom_svg__prefix-banner-2-4" data-name="Rectangle 137" fill="#EFF0F4"></path><path d="M263.557 280.661h46.565v2.91h-46.565z" class="banner-bottom_svg__prefix-banner-2-4" data-name="Rectangle 138" fill="#EFF0F4"></path></g></g><g data-name="Group 481"><g data-name="Group 479" transform="translate(247.55 292.3)"><circle cx="5.821" cy="5.821" r="5.821" class="banner-bottom_svg__prefix-banner-2-5" data-name="Ellipse 30" fill="#F53700"></circle><path d="M3.41 5.71l2.438 1.589 2.383-3.658" class="banner-bottom_svg__prefix-banner-2-13" data-name="Path 286" stroke="#FFFFFF" fill="none"></path></g><g data-name="Group 480"><path d="M263.557 292.3h97.496v2.91h-97.496z" class="banner-bottom_svg__prefix-banner-2-4" data-name="Rectangle 139" fill="#EFF0F4"></path><path d="M263.557 296.665h66.937v2.91h-66.937z" class="banner-bottom_svg__prefix-banner-2-4" data-name="Rectangle 140" fill="#EFF0F4"></path><path d="M263.557 301.031h46.565v2.91h-46.565z" class="banner-bottom_svg__prefix-banner-2-4" data-name="Rectangle 141" fill="#EFF0F4"></path></g></g><g data-name="Group 484"><g data-name="Group 482" transform="translate(247.55 312.68)"><circle cx="5.821" cy="5.821" r="5.821" class="banner-bottom_svg__prefix-banner-2-5" data-name="Ellipse 31" fill="#F53700"></circle><path d="M3.41 5.71l2.438 1.589 2.383-3.658" class="banner-bottom_svg__prefix-banner-2-13" data-name="Path 287" stroke="#FFFFFF" fill="none"></path></g><g data-name="Group 483"><path d="M263.557 312.68h97.496v2.91h-97.496z" class="banner-bottom_svg__prefix-banner-2-4" data-name="Rectangle 142" fill="#EFF0F4"></path><path d="M263.557 317.045h66.937v2.91h-66.937z" class="banner-bottom_svg__prefix-banner-2-4" data-name="Rectangle 143" fill="#EFF0F4"></path><path d="M263.557 321.411h46.565v2.91h-46.565z" class="banner-bottom_svg__prefix-banner-2-4" data-name="Rectangle 144" fill="#EFF0F4"></path></g></g><circle cx="1.455" cy="1.455" r="1.455" class="banner-bottom_svg__prefix-banner-2-9" data-name="Ellipse 32" transform="translate(365.42 258.83)" fill="#202CB9"></circle><circle cx="1.455" cy="1.455" r="1.455" class="banner-bottom_svg__prefix-banner-2-9" data-name="Ellipse 33" transform="translate(246.09 221)" fill="#202CB9"></circle><circle cx="1.455" cy="1.455" r="1.455" class="banner-bottom_svg__prefix-banner-2-10" data-name="Ellipse 35" transform="translate(266.46 258.83)" stroke="#202CB9" fill="none" stroke-width="0.25px"></circle></g><g data-name="Group 491" transform="translate(161.08 -226)"><path d="M446.55 287.3c20.94 7.03 43.91 5.283 64.783-1.972s39.839-19.763 57.248-34.021c8.383-6.866 16.568-14.237 26.159-18.977 16.476-8.142 35.976-7.687 53.133-1.341s32.152 18.182 44.95 31.919c6.361 6.827 12.3 14.2 19.567 19.908 23.8 18.672 56.411 15.961 85.611 11.145" class="banner-bottom_svg__prefix-banner-2-3" data-name="Path 288" stroke="#202CB9" fill="none" stroke-width="0.5px"></path><circle cx="1.631" cy="1.631" r="1.631" class="banner-bottom_svg__prefix-banner-2-9" data-name="Ellipse 36" transform="translate(514.2 232.9)" fill="#202CB9"></circle><circle cx="1.631" cy="1.631" r="1.631" fill="none" stroke="#F53700" stroke-miterlimit="10" stroke-width="0.5px" data-name="Ellipse 38" transform="translate(600.68 290.28)"></circle><circle cx="1.631" cy="1.631" r="1.631" class="banner-bottom_svg__prefix-banner-2-10" data-name="Ellipse 39" transform="translate(395.99 330.24)" stroke="#202CB9" fill="none" stroke-width="0.25px"></circle><g data-name="0Pkjsb"><g data-name="Group 486"><path d="M520.875 353.964c4.754-.321 9.512.021 14.26-.191 8.274-.37 16.553-.228 24.824-.111 5.112.072 10.23-.078 15.333.176 2.539.127 5.076.023 7.607.161 3.895.214 7.793.285 11.689.411 3.211.1 6.428.209 9.634.395 5.457.316 10.947.535 16.271 1.946 3.251.863 6.428 2.022 8.845 4.5 1.775 1.817 2.791 3.994 1.592 6.55a9.276 9.276 0 01-3.913 3.839 35.808 35.808 0 01-10.89 3.83c-5.5 1.226-11.03 2.264-16.587 3.2-4.086.685-8.194 1.184-12.3 1.7a100.851 100.851 0 00-10.548 1.6c-.546.127-1.385.13-1.474.656-.067.39.775.654 1.246.935a55.956 55.956 0 016.276 3.732c1.515 1.194 2.848 2.572 2.676 4.71a6.186 6.186 0 01-2.717 4.438 31.233 31.233 0 01-10.119 4.7 94.42 94.42 0 01-11.743 2.672c-3.7.639-7.4 1.254-11.131 1.654-3.28.349-6.55.8-9.83 1.138-2.063.209-4.144.228-6.209.424-8.734.829-17.494.621-26.241.529-3.813-.039-7.638-.321-11.45-.69-2.287-.222-4.583-.378-6.865-.649a102.262 102.262 0 01-10.618-1.805 46.064 46.064 0 01-8.279-2.508 10.248 10.248 0 01-5.09-4.069 3.315 3.315 0 01.572-4.038 15.29 15.29 0 014.071-2.99c4.562-2.5 9.293-4.7 13.619-7.617a6.493 6.493 0 001.9-1.646 1.141 1.141 0 00-.372-1.75 9.431 9.431 0 00-2.486-1.336 38.094 38.094 0 00-8.543-1.778c-4.844-.563-9.7-.7-14.575-.829-2.339-.062-4.683-.034-7.02-.144-3.792-.179-7.587-.316-11.37-.607-3.936-.3-7.861-.739-11.786-1.163-4.567-.493-9.129-1.029-13.69-1.561a91.079 91.079 0 01-9.711-1.243 19.32 19.32 0 01-7.654-3.244c-2.889-2.22-2.228-6.005 1.341-7.429a58.611 58.611 0 0111.48-2.924c8.287-1.492 16.01-3.156 24.445-3.653q13.874-.817 27.774-1.05 14.764-.247 29.529.162c9.354.251 18.92 1.432 28.227.967z" class="banner-bottom_svg__prefix-banner-2-4" data-name="Path 289" fill="#EFF0F4"></path></g></g><g data-name="Group 490" transform="translate(421.27 251.64)"><path d="M5.87 96.37V5.382A6.384 6.384 0 0112.254-1h97.321a6.384 6.384 0 016.384 6.382v90.166a1.7 1.7 0 01-1.683 1.7l-106.7.82A1.7 1.7 0 015.87 96.37z" class="banner-bottom_svg__prefix-banner-2-15" data-name="Path 290" fill="#FFF0EE"></path><path fill="none" stroke="#F53700" stroke-linecap="round" stroke-miterlimit="10" stroke-width="2px" d="M121.03 29.482h47.422" data-name="Line 25"></path><path d="M159.06 29.482l9.396 33.873" class="banner-bottom_svg__prefix-banner-2-17" data-name="Line 26" stroke="#F53700" fill="none" stroke-width="2px"></path><path fill="none" stroke="#F53700" stroke-linecap="round" stroke-linejoin="round" stroke-width="1.75px" d="M220.94 88.51a24.561 24.561 0 00-44.922 13.73H90.611" data-name="Path 292"></path><path d="M220.94 88.51a24.561 24.561 0 00-44.922 13.73" class="banner-bottom_svg__prefix-banner-2-17" data-name="Path 294" stroke="#F53700" fill="none" stroke-width="2px"></path><path d="M10.95 101.53V11.437c0-3.332 4.024-7.354 8.985-7.354h92.117a8.986 8.986 0 018.987 8.989v89.246" class="banner-bottom_svg__prefix-banner-2-21" data-name="Path 295" stroke="#F53700" fill="none" stroke-width="2px"></path><path d="M205.72 53.193v23.711" class="banner-bottom_svg__prefix-banner-2-17" data-name="Line 28" stroke="#F53700" fill="none" stroke-width="2px"></path><path d="M206.56 60.82a5.928 5.928 0 010 11.856z" class="banner-bottom_svg__prefix-banner-2-5" data-name="Path 297" fill="#F53700"></path><path d="M131.13 63.904V42.36a1.084 1.084 0 011.085-1.085h21.749a1.082 1.082 0 011.06.858l4.617 21.542" class="banner-bottom_svg__prefix-banner-2-21" data-name="Path 298" stroke="#F53700" fill="none" stroke-width="2px"></path><g data-name="Group 489"><g data-name="Group 487"><path d="M28.21 57.272h.644l.995 3.06h.031l1.016-3.05h.651l-1.264 3.733h-.848z" class="banner-bottom_svg__prefix-banner-2-9" data-name="Path 300" fill="#202CB9"></path><path d="M31.95 60.666a1.74 1.74 0 01-.294-1.057 1.72 1.72 0 01.31-1.063.994.994 0 01.843-.4.9.9 0 01.577.17 1.006 1.006 0 01.3.372h.042v-.468h.651l-.013 2.817h-.651v-.517h-.042a1.088 1.088 0 01-.316.388.913.913 0 01-.582.168.978.978 0 01-.825-.41zm.571-3.014a1.226 1.226 0 01-.39-.468h.533a.479.479 0 00.853 0h.533a1.2 1.2 0 01-.4.465 1.1 1.1 0 01-1.133 0zm1.018 2.621a1.3 1.3 0 00.006-1.319.652.652 0 00-1.057 0 1.329 1.329 0 000 1.319.645.645 0 001.052 0z" class="banner-bottom_svg__prefix-banner-2-9" data-name="Path 301" fill="#202CB9"></path><path d="M35.137 58.227h.651v.458h.037a.923.923 0 01.866-.524.884.884 0 01.783.356 1.427 1.427 0 01.236.817l-.008 1.717h-.646l.008-1.616a.792.792 0 00-.166-.537.667.667 0 00-.944.01.793.793 0 00-.17.522l-.007 1.616h-.651z" class="banner-bottom_svg__prefix-banner-2-9" data-name="Path 302" fill="#202CB9"></path><path d="M40.689 60.93a1.09 1.09 0 01-.315-.388h-.044l-.007 1.615h-.646l.018-3.914h.646v.47h.044a.982.982 0 01.3-.369.912.912 0 01.582-.165.987.987 0 01.845.406 2.024 2.024 0 01-.008 2.119.984.984 0 01-.84.4.9.9 0 01-.575-.174zm.886-.62a1.218 1.218 0 00.179-.664 1.178 1.178 0 00-.175-.659.654.654 0 00-1.058 0 1.314 1.314 0 000 1.323.588.588 0 00.523.277.594.594 0 00.531-.277z" class="banner-bottom_svg__prefix-banner-2-9" data-name="Path 303" fill="#202CB9"></path><path d="M43.062 57.109h.651l-.007 1.611h.038a.933.933 0 01.323-.372.918.918 0 01.543-.152.878.878 0 01.781.354 1.41 1.41 0 01.237.817l-.007 1.717h-.646l.007-1.615a.777.777 0 00-.165-.537.6.6 0 00-.471-.192.587.587 0 00-.465.2.76.76 0 00-.178.524l-.008 1.616h-.651z" class="banner-bottom_svg__prefix-banner-2-9" data-name="Path 304" fill="#202CB9"></path><path d="M46.838 60.935a1.235 1.235 0 01-.448-.535 1.743 1.743 0 01-.145-.726 1.723 1.723 0 01.152-.723 1.253 1.253 0 01.453-.533 1.448 1.448 0 011.476.007 1.241 1.241 0 01.447.535 1.789 1.789 0 01.144.721 1.814 1.814 0 01-.15.724 1.235 1.235 0 01-.45.537 1.441 1.441 0 01-1.478-.007zm-.188-4.064h.656l.524 1.016h-.512zm1.447 3.472a1.164 1.164 0 00.184-.665 1.149 1.149 0 00-.179-.664.64.64 0 00-1.037 0 1.323 1.323 0 000 1.331.635.635 0 001.036 0z" class="banner-bottom_svg__prefix-banner-2-9" data-name="Path 305" fill="#202CB9"></path><path d="M49.555 58.286h.651v.458h.037a.937.937 0 01.325-.372.921.921 0 01.541-.152.884.884 0 01.783.356 1.414 1.414 0 01.235.817l-.007 1.717h-.646l.008-1.616a.792.792 0 00-.166-.537.667.667 0 00-.944.01.794.794 0 00-.17.522l-.006 1.615h-.651z" class="banner-bottom_svg__prefix-banner-2-9" data-name="Path 306" fill="#202CB9"></path><path d="M53.655 62.201v-.524a1.284 1.284 0 00.174.036 1.491 1.491 0 00.235.02.663.663 0 00.561-.219.881.881 0 00.173-.556v-.416h-.042a1.033 1.033 0 01-.326.38.927.927 0 01-.573.166 1.041 1.041 0 01-.6-.181 1.154 1.154 0 01-.391-.5 1.861 1.861 0 01-.135-.744 1.919 1.919 0 01.142-.752 1.14 1.14 0 01.4-.5 1.039 1.039 0 01.6-.176.928.928 0 01.584.181.975.975 0 01.31.395h.042v-.491h.646l-.011 2.644a1.772 1.772 0 01-.106.581 1.148 1.148 0 01-.395.522 1.264 1.264 0 01-.8.22 1.367 1.367 0 01-.488-.086zm.966-1.913a1.2 1.2 0 00.006-1.256.584.584 0 00-.519-.269.593.593 0 00-.527.261 1.081 1.081 0 00-.181.626 1.12 1.12 0 00.173.636.587.587 0 00.527.267.581.581 0 00.52-.265z" class="banner-bottom_svg__prefix-banner-2-9" data-name="Path 307" fill="#202CB9"></path><path d="M58.463 61.018a1.108 1.108 0 01-.315-.388h-.042l-.008 1.615h-.644l.016-3.914h.646v.47h.042a1 1 0 01.305-.369.929.929 0 01.582-.166.994.994 0 01.846.408 1.746 1.746 0 01.294 1.065 1.728 1.728 0 01-.3 1.054.981.981 0 01-.838.4.9.9 0 01-.584-.175zm.886-.62a1.218 1.218 0 00.181-.664 1.178 1.178 0 00-.173-.659.594.594 0 00-.532-.272.587.587 0 00-.527.267 1.162 1.162 0 00-.183.657 1.213 1.213 0 00.176.665.649.649 0 001.059 0z" class="banner-bottom_svg__prefix-banner-2-9" data-name="Path 308" fill="#202CB9"></path><path d="M60.835 57.187h.651l-.006 1.611h.038a.937.937 0 01.325-.372.91.91 0 01.541-.152.879.879 0 01.783.354 1.434 1.434 0 01.237.817l-.008 1.717h-.646l.008-1.615a.786.786 0 00-.166-.537.658.658 0 00-.936.007.768.768 0 00-.178.524l-.007 1.616h-.651z" class="banner-bottom_svg__prefix-banner-2-9" data-name="Path 309" fill="#202CB9"></path><path d="M64.289 60.805a2.018 2.018 0 01.015-2.12 1 1 0 01.845-.4.9.9 0 01.577.171 1.006 1.006 0 01.3.372h.042v-.47h.651l-.011 2.815h-.651v-.517h-.042a1.092 1.092 0 01-.316.388.909.909 0 01-.582.168.975.975 0 01-.828-.407zm.9-3.611h.5l.744.825h-.6l-.382-.422h-.021l-.375.419h-.6zm.693 3.218a1.313 1.313 0 00.007-1.319.6.6 0 00-.525-.272.588.588 0 00-.532.267 1.334 1.334 0 000 1.319.645.645 0 001.054 0zm.294-3.211a1.345 1.345 0 01.14-.109 1.137 1.137 0 00.194-.161.227.227 0 00.069-.161.19.19 0 00-.047-.132.205.205 0 00-.15-.051.183.183 0 00-.135.047.2.2 0 00-.062.122h-.465a.548.548 0 01.178-.37.686.686 0 01.486-.15.7.7 0 01.466.144.453.453 0 01.16.36.378.378 0 01-.07.24 1.055 1.055 0 01-.192.186.725.725 0 00-.085.067.125.125 0 00-.044.065h-.506a.244.244 0 01.058-.098z" class="banner-bottom_svg__prefix-banner-2-9" data-name="Path 310" fill="#202CB9"></path><path d="M67.471 58.366h.646v.475h.036a.976.976 0 01.113-.193.936.936 0 01.269-.236.933.933 0 01.928.023.952.952 0 01.277.279 1.143 1.143 0 01.109.214h.037a1.549 1.549 0 01.287-.406.821.821 0 01.633-.214.874.874 0 01.577.188 1.029 1.029 0 01.316.453 1.631 1.631 0 01.093.532l-.008 1.717h-.644l.007-1.654a.669.669 0 00-.166-.5.569.569 0 00-.418-.17.6.6 0 00-.429.171.649.649 0 00-.181.493l-.008 1.654h-.646l.008-1.654a.676.676 0 00-.166-.5.571.571 0 00-.418-.17.6.6 0 00-.429.171.651.651 0 00-.181.493l-.008 1.654h-.644z" class="banner-bottom_svg__prefix-banner-2-9" data-name="Path 311" fill="#202CB9"></path></g><g data-name="Group 488"><path d="M33.51 34.333l-.021 4.917 8.7.038-.016 4.022-8.706-.039-.044 9.8-5.216-.023.1-23.261 15.087.065-.02 4.519z" class="banner-bottom_svg__prefix-banner-2-5" data-name="Path 312" fill="#F53700"></path><path d="M57.574 47.798l-7.444-.033-1.686 5.377-5.25-.024 8.377-23.225 4.82.023 8.1 23.3-5.248-.023zm-1.246-3.958l-2.36-7.52h-.2l-2.36 7.5z" class="banner-bottom_svg__prefix-banner-2-5" data-name="Path 313" fill="#F53700"></path><path d="M69.898 52.441a7.7 7.7 0 01-3.078-2.888 7.208 7.208 0 01-1.031-3.711v-.266l5.682.024v.233a3.272 3.272 0 00.855 2.2 3.159 3.159 0 002.522 1.008 3.432 3.432 0 002.3-.721 2.4 2.4 0 00.873-1.923 2.136 2.136 0 00-.757-1.714 4.133 4.133 0 00-1.858-.889l-2.657-.545a11.88 11.88 0 01-4.343-2.013q-2.021-1.47-2.006-4.793a6.532 6.532 0 011.063-3.719 6.694 6.694 0 012.918-2.38 10.257 10.257 0 014.223-.812 9.871 9.871 0 014.648 1.052 7.339 7.339 0 012.947 2.688 6.55 6.55 0 01.982 3.443v.166l-5.682-.025v-.1a3.063 3.063 0 00-.739-1.982 2.9 2.9 0 00-2.371-.923 2.822 2.822 0 00-2.014.688 2.384 2.384 0 00-.755 1.825 2.05 2.05 0 00.822 1.73 4.8 4.8 0 001.991.874l2.688.608a10.188 10.188 0 014.477 2.148 5.6 5.6 0 011.841 4.56 6.688 6.688 0 01-1.147 3.849 7.305 7.305 0 01-3.119 2.546 10.612 10.612 0 01-4.441.877 10.1 10.1 0 01-4.834-1.115z" class="banner-bottom_svg__prefix-banner-2-5" data-name="Path 314" fill="#F53700"></path><path d="M103.225 34.632l-6.115-.026-.083 18.742-5.149-.023.082-18.742-6.115-.028.02-4.519 17.38.077z" class="banner-bottom_svg__prefix-banner-2-5" data-name="Path 315" fill="#F53700"></path></g></g><path d="M90.52 102.243a24.873 24.873 0 10-49.745 0H0" class="banner-bottom_svg__prefix-banner-2-17" data-name="Path 316" stroke="#F53700" fill="none" stroke-width="2px"></path><circle cx="17.941" cy="17.941" r="17.941" class="banner-bottom_svg__prefix-banner-2-5" data-name="Ellipse 40" transform="translate(48.114 85.12)" fill="#F53700"></circle><circle cx="17.941" cy="17.941" r="17.941" class="banner-bottom_svg__prefix-banner-2-5" data-name="Ellipse 41" transform="translate(183.49 85.12)" fill="#F53700"></circle><path d="M130.35 64.201h76.214" class="banner-bottom_svg__prefix-banner-2-17" data-name="Line 27" stroke="#F53700" fill="none" stroke-width="2px"></path></g><rect width="60.347" height="3.262" class="banner-bottom_svg__prefix-banner-2-15" data-name="Rectangle 147" rx="1" transform="translate(369.52 274.79)" fill="#FFF0EE"></rect><rect width="60.347" height="3.262" class="banner-bottom_svg__prefix-banner-2-15" data-name="Rectangle 148" rx="1" transform="translate(363 281.31)" fill="#FFF0EE"></rect><rect width="39.144" height="3.262" class="banner-bottom_svg__prefix-banner-2-15" data-name="Rectangle 149" rx="1" transform="translate(385.83 287.84)" fill="#FFF0EE"></rect></g><g data-name="Group 509" transform="translate(289.51 -230.8)"><circle cx="2" cy="2" r="2" class="banner-bottom_svg__prefix-banner-2-9" data-name="Ellipse 42" transform="translate(774.57 266.08)" fill="#202CB9"></circle><circle cx="2" cy="2" r="2" class="banner-bottom_svg__prefix-banner-2-5" data-name="Ellipse 43" transform="translate(621.57 262.08)" fill="#F53700"></circle><g data-name="0Pkjsb"><g data-name="Group 492"><path d="M690.089 360.098c4.734-.348 9.472.023 14.2-.207 8.241-.4 16.484-.248 24.719-.12 5.091.078 10.188-.085 15.271.191 2.529.138 5.054.025 7.574.175 3.88.232 7.76.31 11.642.446 3.2.111 6.4.226 9.594.428 5.434.343 10.9.58 16.2 2.11 3.238.935 6.4 2.193 8.809 4.877 1.767 1.97 2.78 4.331 1.585 7.1a9.659 9.659 0 01-3.9 4.163c-3.353 2.193-7.084 3.24-10.842 4.152-5.473 1.33-10.986 2.455-16.519 3.464-4.067.743-8.16 1.284-12.248 1.841a92.822 92.822 0 00-10.5 1.74c-.545.138-1.379.142-1.47.711-.065.423.773.709 1.241 1.013a54.87 54.87 0 016.25 4.046c1.508 1.295 2.836 2.789 2.667 5.107a6.818 6.818 0 01-2.708 4.812 30.016 30.016 0 01-10.075 5.093 87.623 87.623 0 01-11.7 2.9c-3.678.693-7.366 1.36-11.085 1.793-3.266.378-6.522.872-9.788 1.234-2.055.226-4.128.248-6.183.46-8.7.9-17.421.674-26.132.573-3.8-.042-7.606-.348-11.4-.748-2.276-.241-4.564-.41-6.837-.7a94.363 94.363 0 01-10.574-1.958 43.08 43.08 0 01-8.243-2.72 10.412 10.412 0 01-5.07-4.412 3.833 3.833 0 01.569-4.379 15.38 15.38 0 014.055-3.242c4.541-2.711 9.254-5.091 13.561-8.259a6.647 6.647 0 001.889-1.784 1.3 1.3 0 00-.371-1.9 9.157 9.157 0 00-2.476-1.448 35.237 35.237 0 00-8.506-1.928c-4.824-.61-9.665-.757-14.514-.9-2.329-.067-4.663-.037-6.991-.156-3.776-.195-7.555-.343-11.323-.658-3.919-.327-7.827-.8-11.736-1.261-4.547-.534-9.09-1.116-13.633-1.692a83.628 83.628 0 01-9.67-1.348 18.442 18.442 0 01-7.622-3.517c-2.877-2.407-2.219-6.511 1.335-8.055a54.518 54.518 0 0111.431-3.171c8.253-1.618 15.944-3.422 24.343-3.961q13.815-.886 27.659-1.139 14.7-.268 29.406.175c9.321.282 18.847 1.563 28.116 1.059z" class="banner-bottom_svg__prefix-banner-2-4" data-name="Path 317" fill="#EFF0F4"></path></g></g><path d="M808.79 286.201s-1.127 20.678-27.805 8.061c-28.739-13.592-39.894-51.234-70.855-37.509" class="banner-bottom_svg__prefix-banner-2-3" data-name="Path 318" stroke="#202CB9" fill="none" stroke-width="0.5px"></path><g data-name="Group 494" transform="translate(693.46 297.83)"><rect width="75.622" height="45.528" fill="#FFFFFF" stroke="#FF3130" stroke-miterlimit="10" stroke-width="2px" data-name="Rectangle 150" rx="1.515" transform="matrix(.84 -.542 .542 .84 0 41.018)"></rect><path fill="none" stroke="#FFFFFF" stroke-miterlimit="10" d="M5.337 49.297L68.881 8.3l7.255 11.244L12.592 60.54z" data-name="Rectangle 151" opacity="0.3"></path><g data-name="Group 493" transform="translate(18.906 43.485)"><rect width="35.832" height="1.903" class="banner-bottom_svg__prefix-banner-2-5" data-name="Rectangle 152" rx="0.368" transform="rotate(-32.848 32.966 9.717)" fill="#F53700"></rect><rect width="35.832" height="1.903" class="banner-bottom_svg__prefix-banner-2-5" data-name="Rectangle 153" rx="0.368" transform="rotate(-32.83 39.32 7.856)" fill="#F53700"></rect><rect width="26.931" height="1.903" class="banner-bottom_svg__prefix-banner-2-5" data-name="Rectangle 154" rx="0.368" transform="rotate(-32.83 45.645 5.99)" fill="#F53700"></rect></g><rect width="12.062" height="7.648" class="banner-bottom_svg__prefix-banner-2-9" data-name="Rectangle 155" rx="0.916" transform="rotate(-32.848 91.906 -92.829)" fill="#202CB9"></rect></g><g data-name="Group 508"><path d="M722.516 276.251q-1.424-.44-2.837-.838v-4.189a8.313 8.313 0 00-8.313-8.313h-40.434a8.314 8.314 0 00-8.313 8.313v4.189q-1.411.4-2.835.838a4.193 4.193 0 00-2.951 4.06l1.27 93.93a13.909 13.909 0 0013.909 13.721h38.278a13.912 13.912 0 0013.908-13.722l1.268-93.93a4.191 4.191 0 00-2.95-4.06z" class="banner-bottom_svg__prefix-banner-2-6" data-name="Path 319" stroke="#F53700" fill="#FFFFFF" stroke-width="2px"></path><g data-name="Group 504" transform="translate(660.956 282.105)"><path d="M-.005 5.226l2.623-.814c18.977-5.88 36.009-5.88 54.985 0l2.624.814-1.151 85.073a12.19 12.19 0 01-12.19 12.027H13.335a12.191 12.191 0 01-12.19-12.027z" class="banner-bottom_svg__prefix-banner-2-5" data-name="Path 320" fill="#F53700"></path><path d="M4.369 16.235h51.493v38.464H4.369z" class="banner-bottom_svg__prefix-banner-2-25" data-name="Rectangle 156" fill="#FFFFFF"></path><path d="M4.369 16.235h51.493v6.67H4.369z" class="banner-bottom_svg__prefix-banner-2-25" data-name="Rectangle 157" fill="#FFFFFF"></path><g data-name="Group 495" transform="translate(4.369 62.431)"><rect width="8.314" height="5.248" class="banner-bottom_svg__prefix-banner-2-26" data-name="Rectangle 158" rx="0.766" stroke="#FFFFFF" fill="none" stroke-width="0.25px"></rect><rect width="8.314" height="5.248" class="banner-bottom_svg__prefix-banner-2-26" data-name="Rectangle 159" rx="0.766" transform="translate(11.697)" stroke="#FFFFFF" fill="none" stroke-width="0.25px"></rect></g><g data-name="Group 496" transform="translate(35.851 62.431)"><rect width="8.314" height="5.248" class="banner-bottom_svg__prefix-banner-2-26" data-name="Rectangle 160" rx="0.766" stroke="#FFFFFF" fill="none" stroke-width="0.25px"></rect><rect width="8.314" height="5.248" class="banner-bottom_svg__prefix-banner-2-26" data-name="Rectangle 161" rx="0.766" transform="translate(11.697)" stroke="#FFFFFF" fill="none" stroke-width="0.25px"></rect></g><g data-name="Group 500"><g data-name="Group 497" transform="translate(5.871 72.108)"><rect width="11.014" height="6.487" class="banner-bottom_svg__prefix-banner-2-26" data-name="Rectangle 162" rx="1.255" stroke="#FFFFFF" fill="none" stroke-width="0.25px"></rect><rect width="11.014" height="6.487" class="banner-bottom_svg__prefix-banner-2-26" data-name="Rectangle 163" rx="1.255" transform="translate(18.738)" stroke="#FFFFFF" fill="none" stroke-width="0.25px"></rect><rect width="11.014" height="6.487" class="banner-bottom_svg__prefix-banner-2-26" data-name="Rectangle 164" rx="1.255" transform="translate(37.475)" stroke="#FFFFFF" fill="none" stroke-width="0.25px"></rect></g><g data-name="Group 498" transform="translate(5.871 80.757)"><rect width="11.014" height="6.487" class="banner-bottom_svg__prefix-banner-2-26" data-name="Rectangle 165" rx="1.255" stroke="#FFFFFF" fill="none" stroke-width="0.25px"></rect><rect width="11.014" height="6.487" class="banner-bottom_svg__prefix-banner-2-26" data-name="Rectangle 166" rx="1.255" transform="translate(18.738)" stroke="#FFFFFF" fill="none" stroke-width="0.25px"></rect><rect width="11.014" height="6.487" class="banner-bottom_svg__prefix-banner-2-26" data-name="Rectangle 167" rx="1.255" transform="translate(37.475)" stroke="#FFFFFF" fill="none" stroke-width="0.25px"></rect></g><g data-name="Group 499" transform="translate(5.871 89.406)"><rect width="11.014" height="6.487" class="banner-bottom_svg__prefix-banner-2-26" data-name="Rectangle 168" rx="1.255" stroke="#FFFFFF" fill="none" stroke-width="0.25px"></rect><rect width="11.014" height="6.487" class="banner-bottom_svg__prefix-banner-2-26" data-name="Rectangle 169" rx="1.255" transform="translate(18.738)" stroke="#FFFFFF" fill="none" stroke-width="0.25px"></rect><rect width="11.014" height="6.487" class="banner-bottom_svg__prefix-banner-2-26" data-name="Rectangle 170" rx="1.255" transform="translate(37.475)" stroke="#FFFFFF" fill="none" stroke-width="0.25px"></rect></g></g><g data-name="Group 502"><g clip-path="url(#banner-bottom_svg__c)" data-name="Group 501" transform="translate(4.369 16.235)"><path fill="url(&quot;#banner-bottom_svg__a&quot;)" d="M0 0h11.279v74.899H0z" data-name="Rectangle 171" transform="rotate(47.364 37.133 50.968)"></path></g></g><circle cx="12.027" cy="12.027" r="12.027" class="banner-bottom_svg__prefix-banner-2-5" data-name="Ellipse 47" transform="rotate(-63.305 42.753 10.722)" fill="#F53700"></circle><g data-name="Group 503"><path d="M29.739 44.346a1.32 1.32 0 01-1.093-.578l-5.357-7.871a1.322 1.322 0 012.186-1.489l4.159 6.112 8.138-14.436a1.322 1.322 0 112.3 1.3l-9.184 16.293a1.326 1.326 0 01-1.1.672z" class="banner-bottom_svg__prefix-banner-2-25" data-name="Path 321" fill="#FFFFFF"></path></g></g><path d="M666.152 233.61h49.991v57.732h-49.991z" class="banner-bottom_svg__prefix-banner-2-25" data-name="Rectangle 173" fill="#FFFFFF"></path><path fill="url(&quot;#banner-bottom_svg__b&quot;)" d="M0 0h49.991v57.732H0z" data-name="Rectangle 174" transform="translate(666.152 233.61)"></path><path fill="#171770" d="M677.589 236.468h27.117v2.652h-27.117z" data-name="Rectangle 175" opacity="0.4"></path><g data-name="Group 507" opacity="0.4"><path d="M669.482 252.198h43.179" class="banner-bottom_svg__prefix-banner-2-32" data-name="Line 31" fill="#171770"></path><path d="M669.482 244.544h43.179" class="banner-bottom_svg__prefix-banner-2-32" data-name="Line 32" fill="#171770"></path><path d="M669.482 282.704h43.179" class="banner-bottom_svg__prefix-banner-2-32" data-name="Line 33" fill="#171770"></path><path d="M669.482 256.398h11.697v1.359h-11.697z" class="banner-bottom_svg__prefix-banner-2-32" data-name="Rectangle 176" fill="#171770"></path><path d="M684.024 256.398h11.697v1.359h-11.697z" class="banner-bottom_svg__prefix-banner-2-32" data-name="Rectangle 177" fill="#171770"></path><g data-name="Group 505"><path d="M709.776 256.398h2.885v1.359h-2.885z" class="banner-bottom_svg__prefix-banner-2-32" data-name="Rectangle 178" fill="#171770"></path><path d="M709.776 260.023h2.885v1.359h-2.885z" class="banner-bottom_svg__prefix-banner-2-32" data-name="Rectangle 179" fill="#171770"></path><path d="M709.776 263.648h2.885v1.359h-2.885z" class="banner-bottom_svg__prefix-banner-2-32" data-name="Rectangle 180" fill="#171770"></path><path d="M709.776 267.272h2.885v1.359h-2.885z" class="banner-bottom_svg__prefix-banner-2-32" data-name="Rectangle 181" fill="#171770"></path><path d="M709.776 270.897h2.885v1.359h-2.885z" class="banner-bottom_svg__prefix-banner-2-32" data-name="Rectangle 182" fill="#171770"></path><path d="M709.776 274.522h2.885v1.359h-2.885z" class="banner-bottom_svg__prefix-banner-2-32" data-name="Rectangle 183" fill="#171770"></path></g><g data-name="Group 506"><path d="M706.813 256.398h1.515v1.359h-1.515z" class="banner-bottom_svg__prefix-banner-2-32" data-name="Rectangle 184" fill="#171770"></path><path d="M706.813 260.023h1.515v1.359h-1.515z" class="banner-bottom_svg__prefix-banner-2-32" data-name="Rectangle 185" fill="#171770"></path><path d="M706.813 263.648h1.515v1.359h-1.515z" class="banner-bottom_svg__prefix-banner-2-32" data-name="Rectangle 186" fill="#171770"></path><path d="M706.813 267.272h1.515v1.359h-1.515z" class="banner-bottom_svg__prefix-banner-2-32" data-name="Rectangle 187" fill="#171770"></path><path d="M706.813 270.897h1.515v1.359h-1.515z" class="banner-bottom_svg__prefix-banner-2-32" data-name="Rectangle 188" fill="#171770"></path><path d="M706.813 274.522h1.515v1.359h-1.515z" class="banner-bottom_svg__prefix-banner-2-32" data-name="Rectangle 189" fill="#171770"></path></g><path d="M669.482 260.023h14.986v1.359h-14.986z" class="banner-bottom_svg__prefix-banner-2-32" data-name="Rectangle 190" fill="#171770"></path><path d="M688.113 260.023h10.237v1.359h-10.237z" class="banner-bottom_svg__prefix-banner-2-32" data-name="Rectangle 191" fill="#171770"></path><path d="M669.482 264.403h11.697v1.359h-11.697z" class="banner-bottom_svg__prefix-banner-2-32" data-name="Rectangle 192" fill="#171770"></path><path d="M684.024 264.403h11.697v1.359h-11.697z" class="banner-bottom_svg__prefix-banner-2-32" data-name="Rectangle 193" fill="#171770"></path><path d="M669.482 268.028h14.986v1.359h-14.986z" class="banner-bottom_svg__prefix-banner-2-32" data-name="Rectangle 194" fill="#171770"></path><path d="M669.482 247.606h23.182v1.359h-23.182z" class="banner-bottom_svg__prefix-banner-2-32" data-name="Rectangle 195" fill="#171770"></path><path d="M696.272 247.606h16.389v1.359h-16.389z" class="banner-bottom_svg__prefix-banner-2-32" data-name="Rectangle 196" fill="#171770"></path><path d="M688.113 268.028h14.986v1.359h-14.986z" class="banner-bottom_svg__prefix-banner-2-32" data-name="Rectangle 197" fill="#171770"></path><path d="M669.482 272.408h11.697v1.359h-11.697z" class="banner-bottom_svg__prefix-banner-2-32" data-name="Rectangle 198" fill="#171770"></path><path d="M684.024 272.408h11.697v1.359h-11.697z" class="banner-bottom_svg__prefix-banner-2-32" data-name="Rectangle 199" fill="#171770"></path><path d="M669.482 276.033h14.986v1.359h-14.986z" class="banner-bottom_svg__prefix-banner-2-32" data-name="Rectangle 200" fill="#171770"></path><path d="M688.113 276.033h14.986v1.359h-14.986z" class="banner-bottom_svg__prefix-banner-2-32" data-name="Rectangle 201" fill="#171770"></path></g></g></g></g></svg>